<svg height="42" viewBox="0 0 42 42" width="42" xmlns="http://www.w3.org/2000/svg"><path d="m15.8423971 40.8910891v-17.0495049h-4.7295596c-.6120606 0-1.1128375-.4990099-1.1128375-1.1089109v-5.8217822c0-.609901.5007769-1.1089109 1.1128375-1.1089109h4.7295596v-5.6831683c0-6.5148515 4.0340361-10.1188119 9.8764332-10.1188119h4.8686643c.6120607 0 1.1128376.4990099 1.1128376 1.10891089v4.99009901c0 .60990099-.5007769 1.10891089-1.1128376 1.10891089h-2.9211985c-3.199408 0-3.8949315 1.52475248-3.8949315 3.74257421v4.8514852h7.0943394c.6955235 0 1.2519422.5544554 1.1128375 1.2475248l-.6955234 5.8217821c0 .5544555-.5564188.9702971-1.1128376.9702971h-6.2597112v17.0495049c0 .6126733-.4979948 1.1089109-1.1128375 1.1089109h-5.8423971c-.6148428 0-1.1128376-.4962376-1.1128376-1.1089109" fill="#666" fill-rule="evenodd"/></svg>