<svg height="42" viewBox="0 0 42 42" width="42" xmlns="http://www.w3.org/2000/svg"><path d="m20.9999603 1c5.4317136 0 6.1127221.02302314 8.2459347.12035543 2.1288462.09709412 3.5826382.43521667 4.854865.92965836 1.3151768.51103424 2.4305286 1.19490078 3.5423873 2.30675948 1.1119381 1.11193809 1.7957253 2.22728996 2.3068389 3.54238738.4944417 1.27222675.8325642 2.72601875.9296584 4.85486495.0973323 2.1332126.1203554 2.8143005.1203554 8.2459347 0 5.4317136-.0230231 6.1128015-.1203554 8.2460141-.0970942 2.1287668-.4352167 3.5826382-.9296584 4.8547856-.5111136 1.3151768-1.1949008 2.4305286-2.3068389 3.5423873-1.1118587 1.1119381-2.2272105 1.7957253-3.5423873 2.3069183-1.2722268.4943623-2.7260188.8324848-4.854865.9296584-2.1332126.0972529-2.8142211.120276-8.2459347.120276-5.4316342 0-6.1128015-.0230231-8.2459347-.120276-2.1288462-.0971736-3.5826382-.4352961-4.85486495-.9296584-1.31509742-.511193-2.43052868-1.1949802-3.54238738-2.3069183-1.11193809-1.1118587-1.79572524-2.2272899-2.30683887-3.5423873-.49444169-1.2721474-.83248485-2.7260188-.92965836-4.8547856-.09733229-2.1332126-.12027604-2.8143005-.12027604-8.2460141s.02294375-6.1127221.12027604-8.2459347c.09717351-2.1288462.43521667-3.5826382.92965836-4.85486495.51111363-1.31509742 1.19490078-2.43044929 2.30683887-3.54238738 1.1118587-1.1118587 2.22728996-1.79572524 3.54238738-2.30675948 1.27222675-.49444169 2.72601875-.83256424 4.85486495-.92965836 2.1331332-.09733229 2.8143005-.12035543 8.2459347-.12035543zm0 3.60359717c-5.3402561 0-5.9727573.02032387-8.0817559.1165447-1.9499009.08899633-3.00896518.4148134-3.71371132.68870934-.93346909.36281287-1.59979041.79620356-2.29961436 1.4961069-.69982395.69982395-1.13329403 1.36606588-1.49610691 2.29961436-.27381654.70474614-.59963361 1.76373103-.68862994 3.71371123-.09622083 2.1089193-.1165447 2.7414998-.1165447 8.0816766 0 5.3402562.02032387 5.9728367.1165447 8.081756.08899633 1.9499802.4148134 3.0089651.68862994 3.7137112.36281288.9334691.79628296 1.5997904 1.49610691 2.2996144.69982395.6999033 1.36614527 1.133294 2.29961436 1.4961069.70474614.2738165 1.76381042.599713 3.71379062.6886299 2.1086018.0962209 2.7410235.1166241 8.0816766.1166241s5.9730748-.0204032 8.0816766-.1166241c1.9499802-.0889169 3.0089651-.4148134 3.7137112-.6886299.9335485-.3628129 1.5998698-.7962036 2.2996938-1.4961069.6998239-.699824 1.1332146-1.3661453 1.4961069-2.2996144.2738165-.7047461.5996336-1.763731.6886299-3.7137906.0961415-2.1088399.1165447-2.7414204.1165447-8.0816766 0-5.3401768-.0204032-5.9727573-.1165447-8.0816766-.0889963-1.9499802-.4148134-3.00896509-.6886299-3.71371123-.3628923-.93354848-.796283-1.59979041-1.4961069-2.29969375-.699824-.69982395-1.3661453-1.13321464-2.2996938-1.49602751-.7047461-.27389594-1.763731-.59971301-3.7137112-.68870934-2.1089193-.09622083-2.7414204-.1165447-8.0816766-.1165447zm0 23.06306953c3.6818758 0 6.6667064-2.9848306 6.6667064-6.6667064s-2.9848306-6.666627-6.6667064-6.666627-6.6667064 2.9847512-6.6667064 6.666627 2.9848306 6.6667064 6.6667064 6.6667064zm0-16.9369305c5.6721069 0 10.2702241 4.5981172 10.2702241 10.2702241 0 5.6721863-4.5981172 10.2703035-10.2702241 10.2703035s-10.2703035-4.5981172-10.2703035-10.2703035c0-5.6721069 4.5981966-10.2702241 10.2703035-10.2702241zm13.0760379-.4057788c0 1.3254975-1.074466 2.3999634-2.3999635 2.3999634s-2.4000429-1.0744659-2.4000429-2.3999634c0-1.32549757 1.0745454-2.39996352 2.4000429-2.39996352s2.3999635 1.07446595 2.3999635 2.39996352z" fill="#666" fill-rule="evenodd"/></svg>