<svg height="42" viewBox="0 0 42 42" width="42" xmlns="http://www.w3.org/2000/svg"><path d="m35.0846088 35.0852778h-5.9287242v-9.2833334c0-2.2136111-.0405545-5.0611111-3.0826922-5.0611111-3.0871365 0-3.5610122 2.4113889-3.5610122 4.9011111v9.4433334h-5.9273353v-19.0894445h5.6901197v2.6083334h.0794422c.7922002-1.5005556 2.7271465-3.0827778 5.6134552-3.0827778 6.0076109 0 7.1167468 3.9538889 7.1167468 9.0933333zm-25.18624487-21.6988889c-1.90133607 0-3.44045998-1.5413889-3.44045998-3.44055557 0-1.8975 1.53912391-3.43888889 3.44045998-3.43888889 1.89661397 0 3.43796007 1.54138889 3.43796007 3.43888889 0 1.89916667-1.5413461 3.44055557-3.43796007 3.44055557zm-2.96769534 21.6988889h5.93289071v-19.0894445h-5.93289071zm31.10858031-34.0852778h-34.08683091c-1.62884364 0-2.95241799 1.29111111-2.95241799 2.88222222v34.23166668c0 1.5930555 1.32357435 2.8861111 2.95241799 2.8861111h34.08683091c1.6316214 0 2.9607511-1.2930556 2.9607511-2.8861111v-34.23166668c0-1.59111111-1.3291297-2.88222222-2.9607511-2.88222222z" fill="#666" fill-rule="evenodd"/></svg>