<svg xmlns="http://www.w3.org/2000/svg" viewBox="0 0 100 120" width="100" height="120">
  <!-- "m" with horizontal bar extension -->
  <path d="M10 30 
           Q10 10, 30 10 
           Q50 10, 50 30 
           L50 60 
           L40 60 
           L40 30 
           Q40 20, 30 20 
           Q20 20, 20 30 
           L20 60 
           L10 60 Z
           M5 35 H55 V40 H5 Z" fill="#4D4D4D"></path>

  <!-- "s" -->
  <path d="M20 75 
           Q20 70, 30 70 
           Q40 70, 40 80 
           Q40 90, 30 90 
           Q20 90, 20 95 
           Q20 100, 30 100 
           Q40 100, 40 95 
           L40 105 
           Q40 110, 30 110 
           Q20 110, 20 105 
           Q20 100, 30 100 
           Q40 100, 40 90 
           Q40 80, 30 80 
           Q20 80, 20 75 Z" fill="#4D4D4D"></path>

  <!-- "c" -->
  <path d="M50 95 
           Q50 80, 65 80 
           Q80 80, 80 85 
           L80 90 
           Q80 85, 70 85 
           Q60 85, 60 95 
           Q60 105, 70 105 
           Q80 105, 80 100 
           L80 105 
           Q80 110, 65 110 
           Q50 110, 50 95 Z" fill="#4D4D4D"></path>
</svg>
