<svg height="42" viewBox="0 0 42 42" width="42" xmlns="http://www.w3.org/2000/svg"><path d="m40.1641591 11.3722452c.8359091 3.1192903.8359091 9.6277096.8359091 9.6277096s0 6.5081936-.8359091 9.6277097c-.46 1.7210968-1.8154546 3.0763871-3.5365909 3.5365807-3.1190909.8357096-15.6275.8357096-15.6275.8357096s-12.50840911 0-15.62772729-.8357096c-1.72113636-.4601936-3.07659091-1.8154839-3.53659091-3.5365807-.83568182-3.1195161-.83568182-9.6277097-.83568182-9.6277097s0-6.5084193.83568182-9.6277096c.46-1.72109681 1.81545455-3.07638714 3.53659091-3.53635488 3.11931818-.83593548 15.62772729-.83593548 15.62772729-.83593548s12.5084091 0 15.6275.83593548c1.7211363.45996774 3.0765909 1.81525807 3.5365909 3.53635488zm-23.2550682 15.5368613 10.4545455-5.9089033-10.4545455-5.9093548z" fill="#666" fill-rule="evenodd"/></svg>